<svg id="Layer_1" enable-background="new 0 0 512 512" height="512" viewBox="0 0 512 512" width="512" xmlns="http://www.w3.org/2000/svg"><path clip-rule="evenodd" d="m328.977 457.297c-7.8-30.358-34.051-53.319-66.09-56.223v-87.44c70.732 14.096 116.787-16.695 138.167-92.373-73.344-1.144-119.397 21.252-138.167 67.183v-69.034c47.439-47.28 47.214-109.117-6.889-164.708-54.106 55.594-54.327 117.434-6.883 164.714v69.04c-18.767-45.94-64.82-68.339-138.17-67.195 21.38 75.678 67.437 106.47 138.17 92.373v87.439c-32.04 2.904-58.294 25.865-66.093 56.224zm-183.443 32.835c3.802 0 6.886 3.084 6.886 6.886s-3.084 6.886-6.886 6.886h-130.55c-3.802 0-6.888-3.084-6.888-6.886v-130.551c0-3.802 3.085-6.886 6.888-6.886s6.886 3.083 6.886 6.886v123.665zm220.933-468.262c-3.803 0-6.888-3.084-6.888-6.886s3.085-6.888 6.888-6.888h130.549c3.802 0 6.888 3.085 6.888 6.888v130.55c0 3.802-3.085 6.888-6.888 6.888s-6.886-3.085-6.886-6.888v-123.664zm-220.933-13.774c3.802 0 6.886 3.085 6.886 6.888s-3.084 6.886-6.886 6.886h-123.664v123.663c0 3.802-3.084 6.888-6.886 6.888s-6.888-3.085-6.888-6.888v-130.549c0-3.802 3.085-6.888 6.888-6.888zm220.933 495.808c-3.803 0-6.888-3.084-6.888-6.886s3.085-6.886 6.888-6.886h123.663v-123.665c0-3.802 3.084-6.886 6.886-6.886s6.888 3.083 6.888 6.886v130.551c0 3.802-3.085 6.886-6.888 6.886z" fill-rule="evenodd"/></svg>
